<svg width="512" height="283" viewBox="0 0 512 283" fill="none" xmlns="http://www.w3.org/2000/svg">
<g clip-path="url(#clip0_6611_5473)">
<mask id="mask0_6611_5473" style="mask-type:luminance" maskUnits="userSpaceOnUse" x="209" y="-6" width="323" height="310">
<path d="M524.686 155.61L335.542 -1.53112C327.875 -7.90081 316.242 -6.54318 309.559 1.50122L214.262 116.206C207.578 124.25 208.376 135.935 216.042 142.305L405.186 299.446C412.853 305.816 424.486 304.459 431.169 296.414L526.467 181.709C533.15 173.665 532.353 161.98 524.686 155.61Z" fill="white"/>
</mask>
<g mask="url(#mask0_6611_5473)">
<path d="M324.516 6.39336L504.503 155.928C507.689 158.575 508.126 163.303 505.479 166.489L414.857 275.566C412.211 278.752 407.482 279.189 404.296 276.542L224.309 127.008C221.123 124.361 220.686 119.632 223.332 116.446L313.954 7.36941C316.601 4.18339 321.33 3.74639 324.516 6.39336Z" fill="#FC5C50" stroke="#CA4A40"/>
<path d="M390.154 131.897L388.902 133.404L390.802 134.115L390.45 135.09L388.577 134.346L388.433 136.375L387.365 136.299L387.575 134.245L385.588 134.822L385.297 133.769L387.279 133.267L386.191 131.552L387.084 131.026L388.107 132.766L389.37 131.245L390.154 131.897Z" fill="white"/>
<path d="M384.76 127.415L383.508 128.923L385.408 129.634L385.055 130.608L383.182 129.864L383.04 131.893L381.972 131.817L382.181 129.763L380.193 130.34L379.903 129.287L381.885 128.786L380.796 127.07L381.69 126.544L382.712 128.285L383.976 126.764L384.76 127.415Z" fill="white"/>
<path d="M379.365 122.933L378.112 124.44L380.013 125.151L379.66 126.126L377.788 125.382L377.644 127.411L376.576 127.335L376.786 125.281L374.798 125.857L374.507 124.805L376.489 124.303L375.401 122.587L376.295 122.062L377.317 123.802L378.58 122.281L379.365 122.933Z" fill="white"/>
<path d="M373.97 118.451L372.717 119.958L374.618 120.669L374.265 121.644L372.392 120.9L372.249 122.929L371.181 122.853L371.391 120.799L369.403 121.376L369.112 120.323L371.094 119.821L370.006 118.106L370.899 117.58L371.922 119.321L373.186 117.8L373.97 118.451Z" fill="white"/>
<path d="M364.722 110.768L363.47 112.275L365.37 112.986L365.017 113.961L363.144 113.216L363.002 115.246L361.934 115.17L362.143 113.115L360.155 113.692L359.865 112.64L361.847 112.138L360.758 110.422L361.652 109.897L362.674 111.637L363.938 110.116L364.722 110.768Z" fill="white"/>
<path d="M359.327 106.286L358.075 107.793L359.975 108.504L359.623 109.479L357.75 108.734L357.607 110.763L356.539 110.688L356.748 108.634L354.761 109.21L354.47 108.158L356.452 107.656L355.363 105.94L356.257 105.415L357.279 107.155L358.543 105.634L359.327 106.286Z" fill="white"/>
<path d="M353.933 101.804L352.68 103.311L354.581 104.022L354.228 104.997L352.355 104.253L352.212 106.282L351.144 106.206L351.354 104.152L349.366 104.728L349.075 103.676L351.057 103.174L349.969 101.458L350.863 100.933L351.885 102.673L353.149 101.152L353.933 101.804Z" fill="white"/>
<path d="M348.537 97.3218L347.285 98.8293L349.185 99.54L348.832 100.515L346.96 99.7706L346.817 101.8L345.749 101.724L345.958 99.6697L343.971 100.247L343.68 99.1937L345.662 98.6922L344.573 96.9765L345.467 96.4509L346.489 98.1913L347.753 96.6703L348.537 97.3218Z" fill="white"/>
<path d="M339.289 89.6382L338.037 91.1457L339.937 91.8563L339.584 92.8313L337.712 92.087L337.569 94.1161L336.501 94.0401L336.71 91.9861L334.723 92.5629L334.432 91.5101L336.414 91.0086L335.325 89.2929L336.219 88.7672L337.241 90.5077L338.505 88.9867L339.289 89.6382Z" fill="white"/>
<path d="M333.895 85.1562L332.642 86.6637L334.543 87.3744L334.19 88.3494L332.317 87.6051L332.174 89.6342L331.106 89.5581L331.316 87.5041L329.328 88.081L329.037 87.0281L331.019 86.5267L329.931 84.811L330.825 84.2854L331.847 86.0258L333.111 84.5047L333.895 85.1562Z" fill="white"/>
<path d="M328.5 80.6744L327.248 82.1819L329.148 82.8925L328.795 83.8675L326.923 83.1231L326.78 85.1523L325.712 85.0762L325.921 83.0223L323.934 83.5991L323.643 82.5462L325.625 82.0448L324.536 80.3291L325.43 79.8034L326.452 81.5438L327.716 80.0228L328.5 80.6744Z" fill="white"/>
<path d="M323.106 76.1924L321.853 77.6999L323.754 78.4105L323.401 79.3855L321.528 78.6411L321.385 80.6703L320.317 80.5943L320.527 78.5403L318.539 79.1171L318.248 78.0642L320.23 77.5628L319.142 75.8471L320.036 75.3214L321.058 77.0619L322.321 75.5409L323.106 76.1924Z" fill="white"/>
<path d="M313.858 68.5088L312.605 70.0163L314.506 70.727L314.153 71.702L312.28 70.9576L312.137 72.9867L311.069 72.9107L311.279 70.8567L309.291 71.4335L309 70.3807L310.982 69.8792L309.894 68.1635L310.788 67.6379L311.81 69.3783L313.073 67.8573L313.858 68.5088Z" fill="white"/>
<path d="M308.462 64.0269L307.21 65.5344L309.11 66.2451L308.757 67.2201L306.885 66.4757L306.742 68.5049L305.673 68.4287L305.883 66.3748L303.895 66.9516L303.605 65.8987L305.587 65.3973L304.498 63.6816L305.392 63.156L306.414 64.8964L307.678 63.3753L308.462 64.0269Z" fill="white"/>
<path d="M303.068 59.5449L301.815 61.0524L303.716 61.7631L303.363 62.7381L301.49 61.9937L301.347 64.0229L300.279 63.9468L300.488 61.8928L298.501 62.4697L298.21 61.4168L300.192 60.9154L299.104 59.1997L299.997 58.674L301.02 60.4144L302.283 58.8934L303.068 59.5449Z" fill="white"/>
<path d="M297.673 55.063L296.421 56.5705L298.321 57.2812L297.968 58.2562L296.096 57.5118L295.952 59.5409L294.884 59.4649L295.094 57.4109L293.106 57.9877L292.816 56.9349L294.798 56.4334L293.709 54.7177L294.603 54.1921L295.625 55.9325L296.889 54.4115L297.673 55.063Z" fill="white"/>
<path d="M303.313 81.2002L302.06 82.7077L303.961 83.4184L303.608 84.3934L301.735 83.649L301.592 85.6781L300.524 85.6021L300.734 83.5481L298.746 84.1249L298.455 83.0721L300.437 82.5706L299.349 80.8549L300.243 80.3293L301.265 82.0697L302.528 80.5487L303.313 81.2002Z" fill="white"/>
<path d="M297.918 76.7183L296.666 78.2258L298.566 78.9365L298.213 79.9115L296.341 79.1671L296.198 81.1963L295.129 81.1201L295.339 79.0662L293.352 79.643L293.061 78.5901L295.043 78.0887L293.954 76.373L294.848 75.8474L295.87 77.5878L297.134 76.0667L297.918 76.7183Z" fill="white"/>
<path d="M292.524 72.2363L291.271 73.7438L293.172 74.4545L292.819 75.4295L290.946 74.6851L290.803 76.7143L289.735 76.6382L289.944 74.5842L287.957 75.1611L287.666 74.1082L289.648 73.6068L288.56 71.8911L289.454 71.3654L290.476 73.1059L291.739 71.5848L292.524 72.2363Z" fill="white"/>
<path d="M287.129 67.7544L285.877 69.2619L287.777 69.9726L287.424 70.9476L285.552 70.2032L285.408 72.2323L284.34 72.1563L284.55 70.1023L282.562 70.6791L282.272 69.6263L284.254 69.1248L283.165 67.4091L284.059 66.8835L285.081 68.6239L286.345 67.1029L287.129 67.7544Z" fill="white"/>
<path d="M379.836 144.776L378.583 146.283L380.484 146.994L380.131 147.969L378.259 147.225L378.115 149.253L377.047 149.177L377.257 147.124L375.269 147.701L374.978 146.647L376.96 146.146L375.872 144.431L376.766 143.905L377.788 145.645L379.052 144.124L379.836 144.776Z" fill="white"/>
<path d="M374.441 140.294L373.189 141.801L375.089 142.512L374.736 143.487L372.863 142.742L372.72 144.772L371.652 144.696L371.861 142.641L369.874 143.218L369.584 142.166L371.566 141.664L370.477 139.948L371.371 139.423L372.393 141.163L373.656 139.642L374.441 140.294Z" fill="white"/>
<path d="M369.046 135.812L367.794 137.319L369.695 138.03L369.342 139.005L367.469 138.26L367.326 140.29L366.258 140.214L366.468 138.16L364.479 138.736L364.189 137.684L366.171 137.182L365.082 135.466L365.976 134.941L366.998 136.681L368.262 135.16L369.046 135.812Z" fill="white"/>
<path d="M322.529 196.256L324.639 193.717C324.404 193.672 324.313 193.642 324.218 193.653C320.329 194.263 317.098 192.955 314.363 190.428C309.982 186.399 308.911 181.279 310.844 175.575C313.188 168.596 317.726 163.428 324.718 160.849C333.525 157.612 340.693 163.896 342.03 169.373C342.245 170.239 342.327 171.129 342.486 172.098L344.55 169.613L351.353 175.264L329.264 201.852L329.273 201.859L322.529 196.256ZM333.614 183.071C334.893 181.651 336.01 180.083 336.585 178.214C337.44 175.366 336.883 172.9 334.771 170.921C332.513 168.807 329.861 168.187 326.934 169.598C322.965 171.517 320.352 174.714 319.174 178.938C318.365 181.869 319.319 184.306 321.579 186.123C323.933 188.019 326.566 188.263 329.38 186.833C331.099 185.959 332.424 184.623 333.614 183.071Z" fill="#000B25" fill-opacity="0.2"/>
<path d="M418.829 262.314C416.503 264.448 413.894 265.735 410.857 266.082C406.333 266.599 402.507 264.946 399.143 262.107C395.046 258.657 392.695 254.312 392.837 248.853C392.922 244.992 394.355 241.576 396.611 238.501C399.578 234.463 403.384 231.643 408.377 230.633C417.201 228.843 426.508 235.23 427.725 243.927C428.289 247.924 427.18 251.578 425.063 254.918C424.016 256.591 422.72 258.115 421.426 259.836L403.161 244.662C400.711 247.126 400.589 252.184 402.824 254.997C403.782 256.182 404.922 257.129 406.354 257.69C408.174 258.395 409.881 258.065 411.543 257.128C411.792 256.99 412.246 256.875 412.413 256.998C414.555 258.717 416.66 260.482 418.835 262.289L418.829 262.314ZM418.303 248.972C420.686 246.213 420.27 242.577 417.322 239.993C414.329 237.372 410.201 237.592 407.483 239.983L418.312 248.98L418.303 248.972Z" fill="#000B25" fill-opacity="0.2"/>
<path d="M281.854 162.402L274.693 156.452L276.899 153.798C276.311 153.828 275.987 153.834 275.674 153.863C269.427 154.335 263.35 149.607 262.464 143.499C261.95 139.945 263.13 136.804 265.323 134.109C270.271 128.026 275.319 122.041 280.337 116.002C280.457 115.857 280.605 115.752 280.758 115.604L287.937 121.569L287.21 122.444C282.762 127.798 278.306 133.161 273.894 138.544C272.135 140.699 271.957 143.054 273.194 144.951C275.445 148.409 280.202 148.943 283.177 146.058C283.597 145.644 284.007 145.206 284.389 144.746L297.23 129.289L304.409 135.254L281.854 162.402Z" fill="#000B25" fill-opacity="0.2"/>
<path d="M267.103 122.741L260.342 117.124C260.73 116.204 261.175 115.301 261.489 114.348C262.821 110.213 260.703 106.253 256.638 105.211C254.671 104.715 252.8 105.152 251.072 106.203C247.862 108.164 245.542 110.939 244.218 114.452C242.993 117.672 243.753 120.58 246.198 122.612C248.643 124.643 251.513 124.767 254.497 123.007C255.075 122.679 255.615 122.273 256.205 121.895L263.103 127.625C260.97 129.582 258.596 131.025 255.89 131.787C250.115 133.414 245.129 131.893 240.816 128.13C237.544 125.262 235.557 121.649 235.319 117.152C235.116 113.434 236.189 110.013 238.158 106.841C240.505 103.056 243.559 99.9906 247.66 98.2312C253.565 95.6787 258.989 96.6211 263.89 100.392C267.338 103.048 269.593 106.479 270.196 110.919C270.743 115.043 269.65 118.837 267.478 122.394C267.419 122.465 267.377 122.551 267.309 122.598C267.272 122.642 267.21 122.665 267.124 122.715L267.103 122.741Z" fill="#000B25" fill-opacity="0.2"/>
<path d="M383.87 202.491C386.128 204.367 388.349 206.183 390.511 208.053C390.705 208.214 390.671 208.805 390.553 209.119C388.578 214.111 386.556 219.108 384.539 224.081C383.684 226.229 382.81 228.364 381.862 230.744C388.772 226.331 395.471 222.035 402.201 217.735L409.067 223.439C407.303 224.495 405.603 225.544 403.885 226.562C395.568 231.549 387.269 236.534 378.971 241.55C378.261 241.992 377.832 241.96 377.229 241.429C375.454 239.867 373.607 238.376 371.767 236.892C371.404 236.589 371.273 236.334 371.449 235.846C375.543 224.846 379.622 213.849 383.7 202.851C383.725 202.769 383.783 202.699 383.887 202.505L383.87 202.491Z" fill="#000B25" fill-opacity="0.2"/>
<path d="M362.045 174.472L368.553 179.879L362.649 186.985L367.68 191.165L362.99 196.81L358.05 192.705C357.776 193.001 357.542 193.215 357.347 193.449L348.759 203.787C347.302 205.541 347.412 206.818 349.133 208.303C350.059 209.102 351.013 209.866 352.003 210.688L347.202 216.467C345.33 214.912 343.447 213.403 341.624 211.804C340.905 211.178 340.271 210.413 339.714 209.624C337.784 206.878 337.939 203.958 340.064 200.996C340.331 200.625 340.621 200.258 340.913 199.908L362.045 174.472Z" fill="#000B25" fill-opacity="0.2"/>
<path d="M293.115 172.767L285.808 166.695L307.508 140.576L314.816 146.647L311.986 150.053C316.93 148.786 320.597 150.687 323.903 154.02L318.228 160.85C316.964 159.799 315.823 158.617 314.484 157.784C310.877 155.535 306.935 156.152 304.305 159.298C300.825 163.487 297.353 167.666 293.873 171.854L293.115 172.767Z" fill="#000B25" fill-opacity="0.2"/>
<path d="M359.056 226.333L351.643 220.175L373.499 193.868L380.912 200.027L359.056 226.333Z" fill="#000B25" fill-opacity="0.2"/>
<path d="M380.783 185.101L388.196 191.259L383.339 197.105L375.927 190.946L380.783 185.101Z" fill="#000B25" fill-opacity="0.2"/>
<path d="M308.382 12.3066L501.445 172.705L486.108 191.165L293.045 30.7669L308.382 12.3066Z" fill="black"/>
</g>
</g>
<g clip-path="url(#clip1_6611_5473)">
<path d="M8.6007 112.667L255.89 37.063C260.295 35.7163 264.957 38.196 266.304 42.601L312.121 192.463C313.468 196.868 310.989 201.53 306.584 202.877L59.2952 278.481C54.8901 279.828 50.2271 277.349 48.8802 272.943L3.06296 123.082C1.71618 118.677 4.19561 114.014 8.6007 112.667Z" fill="#FC5C50" stroke="#CA4A40"/>
<path d="M56.7625 328.727L105.21 313.915L78.7854 227.771L-27.3371 171.035L-114.283 197.617L-99.8335 244.88L-13.1753 218.386L-56.1071 298.318L-11.7382 321.938L30.2002 241.845L56.7625 328.727Z" fill="#FC5C50"/>
<path d="M-4.44859 127.483L-31.0572 40.4497L17.3101 25.6623L43.7425 112.119L85.6346 31.8742L130.003 55.4941L86.4961 135.602L173.73 108.932L188.532 157.348L101.874 183.842L182.163 226.102L158.588 270.494L78.8662 227.746L53.9316 146.189L-27.3366 171.035L-107.626 128.775L-84.0508 84.3825L-4.44859 127.483Z" fill="#FC5C50"/>
<path d="M56.7625 328.727L105.21 313.915L78.7854 227.771L-27.3371 171.035L-114.283 197.617L-99.8335 244.88L-13.1753 218.386L-56.1071 298.318L-11.7382 321.938L30.2002 241.845L56.7625 328.727Z" fill="black" fill-opacity="0.2"/>
<path d="M-4.44859 127.483L-31.0572 40.4497L17.3101 25.6623L43.7425 112.119L85.6346 31.8742L130.003 55.4941L86.4961 135.602L173.73 108.932L188.532 157.348L101.874 183.842L182.163 226.102L158.588 270.494L78.8662 227.746L53.9316 146.189L-27.3366 171.035L-107.626 128.775L-84.0508 84.3825L-4.44859 127.483Z" fill="black" fill-opacity="0.2"/>
<path d="M257.283 61.4195L248.489 64.1081L252.81 55.9966L248.262 53.5783L243.942 61.6935L241.255 52.9057L236.33 54.4113L239.017 63.1991L230.897 58.8874L228.482 63.4346L236.601 67.7424L245.005 65.173L247.573 73.5714L255.693 77.8831L258.112 73.3387L249.992 69.027L258.786 66.3383L257.283 61.4195Z" fill="white"/>
<path d="M236.598 67.743L227.804 70.4316L229.308 75.3505L238.102 72.6618L233.784 80.7761L238.328 83.1916L242.649 75.0765L245.335 83.8643L250.259 82.3589L247.573 73.571L236.603 67.7456L236.598 67.743Z" fill="white"/>
<path d="M81.1311 151.499L52.4174 160.278C51.2905 160.622 50.6563 161.815 51.0008 162.942L57.4995 184.198C57.8441 185.325 59.037 185.96 60.1639 185.615L88.8776 176.836C90.0047 176.492 90.639 175.299 90.2944 174.172L83.7957 152.916C83.4511 151.789 82.2582 151.154 81.1311 151.499Z" fill="#C5B562" stroke="#808285" stroke-width="0.5" stroke-miterlimit="10"/>
<path d="M72.1499 164.814L66.933 166.409C66.236 166.622 65.8436 167.36 66.0567 168.057L67.1276 171.559C67.3406 172.256 68.0784 172.649 68.7755 172.435L73.9923 170.84C74.6894 170.627 75.0816 169.89 74.8685 169.193L73.7976 165.69C73.5845 164.993 72.8469 164.601 72.1499 164.814Z" fill="#C5B562" stroke="#808285" stroke-width="0.5" stroke-miterlimit="10"/>
<path d="M53.9082 172.45L66.2456 168.678" stroke="#808285" stroke-width="0.5" stroke-miterlimit="10"/>
<path d="M54.5898 174.679L66.9272 170.907" stroke="#808285" stroke-width="0.5" stroke-miterlimit="10"/>
<path d="M74.0312 166.309L86.495 162.498" stroke="#808285" stroke-width="0.5" stroke-miterlimit="10"/>
<path d="M74.7129 168.539L87.1767 164.729" stroke="#808285" stroke-width="0.5" stroke-miterlimit="10"/>
<path d="M69.5401 165.611L66.585 155.945" stroke="#808285" stroke-width="0.5" stroke-miterlimit="10"/>
<path d="M74.3644 181.389L71.4092 171.723" stroke="#808285" stroke-width="0.5" stroke-miterlimit="10"/>
<path d="M68.3789 161.137L84.566 156.188" stroke="#808285" stroke-width="0.5" stroke-miterlimit="10"/>
<path d="M56.7393 180.957L72.9262 176.008" stroke="#808285" stroke-width="0.5" stroke-miterlimit="10"/>
<path d="M81.1866 151.494L52.4731 160.273C51.3462 160.617 50.7118 161.81 51.0563 162.937L57.5552 184.193C57.8996 185.32 59.0925 185.954 60.2194 185.61L88.933 176.831C90.06 176.487 90.6943 175.294 90.3499 174.167L83.851 152.91C83.5064 151.783 82.3137 151.149 81.1866 151.494Z" fill="#BCBEC0" stroke="#808285" stroke-width="0.5" stroke-miterlimit="10"/>
<path d="M72.2153 164.806L66.9985 166.401C66.3014 166.614 65.9092 167.352 66.1223 168.049L67.193 171.552C67.4062 172.249 68.144 172.641 68.8411 172.428L74.0579 170.833C74.755 170.62 75.1474 169.882 74.9341 169.185L73.8634 165.683C73.6503 164.986 72.9124 164.593 72.2153 164.806Z" fill="#BCBEC0" stroke="#808285" stroke-width="0.5" stroke-miterlimit="10"/>
<path d="M53.9639 172.445L66.3118 168.67" stroke="#808285" stroke-width="0.5" stroke-miterlimit="10"/>
<path d="M54.6455 174.674L66.9935 170.899" stroke="#808285" stroke-width="0.5" stroke-miterlimit="10"/>
<path d="M74.0947 166.291L86.558 162.481" stroke="#808285" stroke-width="0.5" stroke-miterlimit="10"/>
<path d="M74.7764 168.52L87.2396 164.709" stroke="#808285" stroke-width="0.5" stroke-miterlimit="10"/>
<path d="M69.6064 165.603L66.6514 155.938" stroke="#808285" stroke-width="0.5" stroke-miterlimit="10"/>
<path d="M74.4298 181.381L71.4746 171.715" stroke="#808285" stroke-width="0.5" stroke-miterlimit="10"/>
<path d="M68.4316 161.121L84.6292 156.169" stroke="#808285" stroke-width="0.5" stroke-miterlimit="10"/>
<path d="M56.792 180.942L72.9789 175.994" stroke="#808285" stroke-width="0.5" stroke-miterlimit="10"/>
<path d="M257.467 187.205L255.478 207.031L250.672 208.5L242.756 195.59C242.272 194.795 241.986 194.537 241.2 194.374C239.926 194.12 237.957 194.113 236.263 194.251L236.211 193.704L243.952 191.337C244.941 191.035 246.024 191.417 246.592 192.485L251.616 202.07L252.692 188.665L257.467 187.205ZM279.922 193.278C278.525 188.633 272.011 190.349 271.42 188.264C271.237 187.629 271.631 186.773 272.894 186.203C273.52 185.92 275.3 185.306 277.616 185.622L277.277 181.654C276.061 181.589 274.536 181.641 272.79 182.175C268.299 183.548 265.863 186.904 266.887 190.328C267.627 192.862 270.354 193.581 272.336 193.895C274.367 194.217 275.134 194.581 275.361 195.362C275.711 196.544 274.473 197.497 273.161 197.91C270.891 198.649 269.353 198.395 268.154 198.233L268.51 202.334C269.721 202.493 271.809 202.326 273.856 201.723C278.63 200.263 281.034 196.952 279.936 193.285M293.542 195.394L297.749 194.107L288.706 177.654L284.824 178.841C283.951 179.108 283.369 179.838 283.284 180.726L281.446 199.091L286.221 197.632L286.368 194.723L292.194 192.942L293.542 195.394ZM286.569 190.717L286.947 183.379L290.345 189.562L286.579 190.714L286.569 190.717ZM263.967 185.218L265.586 203.941L261.042 205.33L259.423 186.607L263.967 185.218Z" fill="white"/>
<path fill-rule="evenodd" clip-rule="evenodd" d="M108.346 147.378C108.662 147.047 109.187 147.035 109.517 147.351C111.69 149.428 113.385 152.079 114.333 155.18C115.228 158.107 115.348 161.083 114.826 163.887C114.743 164.337 114.31 164.634 113.86 164.55C113.41 164.466 113.113 164.033 113.197 163.584C113.671 161.033 113.562 158.328 112.748 155.664C111.885 152.843 110.345 150.436 108.372 148.55C108.041 148.233 108.03 147.709 108.346 147.378ZM105.14 150.085C105.461 149.759 105.986 149.755 106.312 150.076C107.969 151.709 109.285 153.789 110.026 156.211C110.712 158.457 110.835 160.748 110.474 162.893C110.398 163.345 109.97 163.649 109.519 163.573C109.067 163.497 108.763 163.069 108.839 162.618C109.158 160.723 109.051 158.692 108.441 156.696C107.784 154.547 106.617 152.703 105.149 151.257C104.823 150.936 104.819 150.411 105.14 150.085ZM101.855 152.883C102.131 152.518 102.651 152.445 103.016 152.721C104.555 153.884 105.747 155.444 106.33 157.35C106.854 159.065 106.812 160.838 106.336 162.508C106.211 162.949 105.752 163.203 105.312 163.078C104.871 162.952 104.616 162.494 104.742 162.054C105.14 160.657 105.166 159.213 104.744 157.835C104.276 156.304 103.313 155.024 102.017 154.044C101.652 153.768 101.579 153.248 101.855 152.883ZM99.4762 155.817C99.8347 155.532 100.356 155.592 100.641 155.95C101.286 156.761 101.833 157.761 102.183 158.906C102.48 159.877 102.597 160.829 102.581 161.72C102.573 162.178 102.196 162.542 101.738 162.534C101.28 162.526 100.916 162.148 100.924 161.69C100.937 160.965 100.842 160.188 100.598 159.391C100.31 158.448 99.8609 157.632 99.3436 156.982C99.0589 156.623 99.1185 156.102 99.4762 155.817Z" fill="#6D6E71"/>
</g>
<defs>
<clipPath id="clip0_6611_5473">
<rect width="251" height="159" fill="white" transform="translate(318.606) rotate(39.72)"/>
</clipPath>
<clipPath id="clip1_6611_5473">
<rect y="114.773" width="276.269" height="174.602" rx="8" transform="rotate(-17 0 114.773)" fill="white"/>
</clipPath>
</defs>
</svg>
