<svg width="6899" height="520" viewBox="0 0 6899 520" fill="none" xmlns="http://www.w3.org/2000/svg">
<g clip-path="url(#clip0_8711_186847)">
<g opacity="0.4">
<path d="M739.537 1.50928C785.073 -6.66879 818.785 30.4886 904.204 33.1615C929.77 32.7157 955.336 32.5435 975.719 32.6981C996.103 32.8527 1011.3 33.6077 1031.43 34.1718C1051.56 34.736 1076.61 35.1094 1100.97 31.9613C1125.33 28.8132 1149.01 22.1437 1168.53 30.4876C1188.06 38.8315 1203.42 62.1889 1223.06 65.1191C1242.7 68.0493 1266.61 50.5524 1288.65 42.2771C1310.69 34.0017 1330.86 34.9479 1350.28 37.856C1369.71 40.7642 1388.4 45.6343 1408.76 45.2244C1429.12 44.8146 1461.83 39.5512 1473.12 39.688C1484.42 39.8248 1532.7 46.603 1560.21 47.0103C1587.73 47.4176 1612.99 42.578 1639.25 39.688C1665.51 36.798 1692.77 35.8578 1722.56 44.0814C1752.35 52.305 1784.67 69.6925 1811.21 66.7806C1837.75 63.8687 1858.52 40.6574 1884.91 32.3657C1911.29 24.0739 1943.21 17.1622 1976.14 20.2906C2009.07 23.419 2042.93 23.048 2070.13 22.4873C2097.33 21.9267 2117.87 21.1765 2145.42 21.0229C2172.98 20.8692 2212.79 13.5845 2242.08 21.7551C2271.37 29.9257 2377.43 50.2184 2432.65 49.1952C2487.86 48.172 2508.4 36.7461 2557.07 35.8996C2605.74 35.0532 2608.06 -5.60996 2657.84 14.9471C2707.62 35.5041 2771.92 28.2009 2841.56 43.8765L2842.17 43.9608C2871.74 48.0575 2901.74 52.2147 2929.07 52.5097C2956.59 52.8067 2981.85 49.277 3008.11 47.1693C3034.37 45.0616 3061.63 44.3759 3091.42 50.3735C3121.21 56.3712 3153.52 69.0523 3180.07 66.9286C3206.61 64.8049 3227.38 47.8763 3253.76 41.829C3280.15 35.7816 3312.15 40.6155 3345.08 42.8971C3378.01 45.1787 3411.87 44.908 3439.07 44.4992C3466.28 44.0903 3486.82 43.5431 3514.37 43.4311C3541.92 43.319 3569.73 43.4311 3610.97 60.2989C3630.96 72.0518 3651.01 82.0729 3671.97 75.5059C3692.93 68.9389 3714.85 44.0521 3740.41 36.1484C3765.97 28.2447 3795.16 37.3242 3814.47 39.6358C3833.78 41.9473 3843.21 37.4909 3868.84 41.1304C3894.48 44.7699 3936.31 56.5053 3960.25 56.0763C3984.19 55.6472 3990.23 43.0536 4010.41 44.6177C4030.59 46.1819 4064.9 61.9038 4087.75 60.56C4110.6 59.2163 4121.97 40.8069 4144 40.6322C4166.03 40.4574 4198.71 58.5173 4224.15 64.5456C4249.6 70.5739 4267.81 64.5706 4286.03 58.5673C4286.03 58.5673 4288.96 56.1899 4344 49.3219C4399.22 48.518 4464.2 33.2065 4512.87 32.5414C4561.54 31.8763 4593.9 45.8577 4643.68 62.0097C4693.46 78.1604 4761.35 102.492 4827.86 65.0174C4864.74 50.0373 4911.3 41.7242 4942.11 48.9261C4972.92 56.128 4992.81 82.1785 5025.79 80.7066C5058.76 79.2346 5104.82 50.2402 5134.4 46.1101C5163.98 41.98 5177.09 62.7141 5205.61 70.2472C5234.13 77.7802 5278.06 72.1121 5314.22 69.0403C5350.38 65.9685 5378.77 65.493 5407.15 65.0174C5445.34 64.3776 5449.06 84.5505 5471.02 78.0743C5492.99 71.5981 5515.97 47.0552 5542.75 39.2608C5569.54 31.4664 5600.14 40.4204 5620.38 42.7C5640.62 44.9796 5650.51 40.5847 5677.37 44.1739C5704.24 47.7631 5748.09 59.3363 5773.18 58.9132C5798.27 58.49 5804.6 46.0706 5825.75 47.6131C5846.9 49.1556 5882.87 64.6601 5906.81 63.335C5930.76 62.0098 5942.68 43.8549 5965.77 43.6826C5988.86 43.5103 6023.11 61.3205 6049.78 67.2654C6076.46 73.2104 6075.29 86.9599 6104.41 86.9599C6136.29 78.3766 6157.24 76.2696 6179.21 69.7934C6201.17 63.3172 6223.45 47.0552 6250.24 39.2608C6277.03 31.4664 6307.62 40.4204 6327.87 42.7C6348.11 44.9796 6357.99 40.5847 6384.86 44.1739C6411.72 47.7631 6455.57 59.3363 6480.66 58.9132C6505.75 58.49 6512.08 46.0705 6533.23 47.6131C6554.38 49.1556 6590.35 64.6601 6614.3 63.335C6638.25 62.0098 6651.63 92.1631 6676.11 105.969C6727.57 151.184 6844.16 245.558 6898.88 261.333H0.802612C104.623 235.459 18.6468 131.425 237.644 99.7917C380.46 97.6152 368.189 146.862 421.287 127.59C474.386 108.319 552.689 95.2744 607.593 70.6165C662.497 45.9586 694.002 9.68736 739.537 1.50928Z" fill="url(#paint0_linear_8711_186847)"/>
<path d="M6160.15 518.625C6114.61 526.804 6080.9 489.646 5995.48 486.973C5969.92 487.419 5944.35 487.591 5923.97 487.437C5903.58 487.282 5888.38 486.527 5868.25 485.963C5848.13 485.399 5823.08 485.025 5798.71 488.173C5774.35 491.322 5750.67 497.991 5731.15 489.647C5711.63 481.303 5696.26 457.946 5676.63 455.016C5656.99 452.085 5633.08 469.582 5611.04 477.858C5589 486.133 5568.83 485.187 5549.4 482.279C5529.97 479.371 5511.28 474.5 5490.92 474.91C5470.57 475.32 5437.85 480.584 5426.56 480.447C5415.27 480.31 5366.99 473.532 5339.47 473.124C5311.96 472.717 5286.7 477.557 5260.44 480.447C5234.17 483.337 5206.92 484.277 5177.13 476.053C5147.34 467.83 5115.02 450.442 5088.48 453.354C5061.93 456.266 5041.17 479.477 5014.78 487.769C4988.39 496.061 4956.48 502.973 4923.55 499.844C4890.62 496.716 4856.76 497.087 4829.56 497.647C4802.36 498.208 4781.81 498.958 4754.26 499.112C4726.71 499.266 4686.9 506.55 4657.6 498.38C4628.31 490.209 4522.25 469.916 4467.04 470.94C4411.82 471.963 4392.67 391.201 4344 392.047C4295.33 392.894 4293.01 433.557 4243.23 413C4193.45 392.443 4127.77 491.934 4058.13 476.258L4057.52 476.174C4027.95 472.077 3997.94 467.92 3970.61 467.625C3943.1 467.328 3917.84 470.858 3891.58 472.965C3865.32 475.073 3838.06 475.759 3808.27 469.761C3778.48 463.764 3746.16 451.082 3719.62 453.206C3693.07 455.33 3672.31 472.258 3645.92 478.306C3619.54 484.353 3587.53 479.519 3554.6 477.238C3521.67 474.956 3487.81 475.227 3460.61 475.636C3433.41 476.044 3412.86 476.592 3385.31 476.704C3357.76 476.816 3329.96 476.704 3288.72 459.836C3268.73 448.083 3248.67 438.062 3227.71 444.629C3206.76 451.196 3184.84 476.083 3159.28 483.986C3133.72 491.89 3104.53 482.811 3085.22 480.499C3065.9 478.187 3056.47 482.644 3030.84 479.004C3005.21 475.365 2963.37 463.629 2939.43 464.059C2915.5 464.488 2909.46 477.081 2889.28 475.517C2869.1 473.953 2834.78 458.231 2811.93 459.575C2789.09 460.918 2777.72 479.328 2755.69 479.503C2733.66 479.677 2700.98 461.617 2675.53 455.589C2650.08 449.561 2631.87 455.564 2613.66 461.568C2613.66 461.568 2610.73 463.945 2555.68 470.813C2500.46 471.617 2435.48 486.928 2386.81 487.593C2338.14 488.258 2305.78 474.277 2256 458.125C2206.23 441.974 2138.33 417.643 2071.82 455.117C2034.95 470.097 1988.38 478.411 1957.57 471.209C1926.77 464.007 1906.88 437.956 1873.9 439.428C1840.92 440.9 1794.86 469.895 1765.28 474.025C1735.7 478.155 1722.6 457.421 1694.08 449.888C1665.56 442.355 1621.62 448.023 1585.46 451.094C1549.3 454.166 1520.92 454.642 1492.53 455.117C1454.34 455.757 1450.63 435.584 1428.66 442.06C1406.7 448.537 1383.72 473.08 1356.93 480.874C1330.14 488.668 1299.55 479.714 1279.3 477.435C1259.06 475.155 1249.18 479.55 1222.31 475.961C1195.45 472.372 1151.6 460.798 1126.51 461.222C1101.42 461.645 1095.09 474.064 1073.94 472.522C1052.79 470.979 1016.82 455.475 992.871 456.8C968.925 458.125 957.002 476.28 933.914 476.452C910.826 476.624 876.572 458.814 849.9 452.869C823.229 446.924 824.395 433.175 795.273 433.175C763.393 441.758 742.441 443.865 720.476 450.341C698.511 456.818 676.234 473.08 649.446 480.874C622.658 488.668 592.061 479.714 571.819 477.435C551.578 475.155 541.694 479.55 514.827 475.961C487.96 472.372 444.112 460.798 419.022 461.222C393.932 461.645 387.602 474.064 366.452 472.522C345.302 470.979 309.332 455.475 285.386 456.8C261.439 458.125 248.051 427.972 223.578 414.166C172.12 368.951 55.5239 274.577 0.802734 258.802H6898.88C6795.06 284.676 6881.04 388.71 6662.04 420.343C6519.23 422.52 6531.5 373.273 6478.4 392.544C6425.3 411.816 6347 424.86 6292.09 449.518C6237.19 474.176 6205.68 510.447 6160.15 518.625Z" fill="url(#paint1_linear_8711_186847)"/>
</g>
<g opacity="0.5">
<path d="M517.545 141.517C576.987 134.969 644.532 122.739 698.573 117.701C727.645 111.117 770 124.632 796 137.828C816.8 148.386 882.481 138.249 912.721 131.861C946.171 124.168 990.279 97.5153 1017.39 93.9931C1044.5 90.4708 1054.62 110.079 1078.81 114.462C1102.99 118.846 1141.24 108.003 1178.67 113.439C1216.1 118.875 1252.71 140.588 1275.33 139.538C1297.95 138.487 1306.59 114.671 1331.4 103.716C1356.21 92.7606 1397.2 94.6651 1430.2 97.0635C1463.2 99.4619 1488.23 102.354 1515.65 105.763C1542.24 101.178 1573.24 120.723 1602.02 115.708C1644.15 97.0627 1809.09 121.598 1841.75 132.885C1874.42 144.171 1899.19 148.68 1935.5 147.035C1971.82 145.391 2019.67 137.591 2063.94 127.442C2108.22 117.293 2246.78 78.3622 2322.18 70.3821C2376.66 62.5886 2427.85 84.2297 2486 89.5518C2544.15 94.8739 2682.74 28.4754 2729 46.4832C2775.26 64.4911 2875.75 75.6548 2907.25 93.5396C2952 128.788 3120.77 131.835 3160 145.11C3199.24 158.386 3263.82 128.818 3307.44 126.883C3351.06 124.948 3408.54 115.775 3461.72 103.837C3514.9 91.8987 3638.5 131.567 3719.65 98.947C3741.71 94.5621 3762.59 91.3333 3782.88 87.5251C3803.16 83.7168 3821.68 80.4853 3846.09 77.8056C3870.51 75.126 3900.83 72.9983 3919.19 85.2382C3937.55 97.478 3943.94 124.085 3960.68 125.259C3977.41 126.433 4004.5 102.174 4032.19 96.1011C4059.88 90.0281 4088.18 102.142 4106.08 97.2445C4123.97 92.3475 4131.46 70.4401 4151.51 74.3753C4171.57 78.3105 4204.21 108.088 4228.96 116.683C4253.71 125.279 4263 106 4287.43 100.103C4311.87 94.2064 4396.4 82.0342 4454.55 88.188C4512.71 94.3418 4597.96 92.905 4644.23 113.727C4690.49 134.549 4689 162.5 4774.5 138C4843 111 4870 90.2728 4976.5 118C5041 147 5123.97 80.8133 5156.64 95.3938C5189.3 109.974 5214.07 115.8 5250.39 113.675C5286.7 111.55 5334.55 101.474 5378.82 88.3626C5423.1 75.2509 5521.07 123.498 5592.57 113.675C5622.39 109.579 5652.2 102.525 5679.62 98.9683C5707.04 95.4111 5732.06 92.3926 5765.07 89.8897C5798.07 87.3867 5839.05 85.3993 5863.86 96.8321C5888.67 108.265 5897.31 133.118 5919.94 134.215C5942.56 135.311 5979.17 112.651 6016.6 106.979C6054.03 101.306 6092.28 112.621 6116.46 108.047C6140.65 103.473 6150.76 83.0097 6177.87 86.6855C6204.99 90.3612 6249.09 118.176 6282.55 126.204C6316 134.232 6330.98 114.931 6361.58 110.717C6386.11 107.34 6410.63 104.072 6431.84 109.225C6453.05 114.378 6470.94 128.061 6494.73 127.369C6518.52 126.677 6548.2 111.61 6574.32 112.427C6600.44 113.244 6622.99 129.945 6644.09 133.773C6665.18 137.601 6675.65 174.463 6702.33 182.517C6729.41 180.796 6855.88 260.944 6876.3 261.331H73.6837C129.986 196.224 114.136 131.861 210.823 141.517C376.456 181.396 458.103 148.065 517.545 141.517Z" fill="url(#paint2_linear_8711_186847)"/>
<path d="M6432.44 367.245C6373 373.034 6305.45 383.845 6251.41 388.299C6222.34 394.118 6175.23 410.517 6149.23 398.851C6128.43 389.519 6062.75 398.479 6032.51 404.126C5999.06 410.927 5954.96 434.488 5927.84 437.601C5900.73 440.715 5890.61 423.381 5866.43 419.507C5842.24 415.632 5803.99 425.216 5766.56 420.411C5729.14 415.606 5692.53 396.412 5669.9 397.341C5647.28 398.269 5638.64 419.322 5613.83 429.006C5589.02 438.691 5583.61 397.341 5519.78 406.542C5486.78 404.422 5461.76 401.865 5434.34 398.851C5407.75 402.904 5376.74 385.627 5347.96 390.06C5305.84 406.542 5199.34 431.562 5166.68 421.585C5134.02 411.608 5067.71 388.606 5031.4 390.06C4995.09 391.514 4938.18 397.57 4893.9 406.542C4849.63 415.514 4703.2 423.073 4627.8 430.128C4573.32 437.017 4543 430.128 4501 392.056C4354 311 4327.57 321 4264 321C4211 314 4137 400 4079.75 388.53C4000 388.53 3863.11 436.647 3823.87 424.912C3784.64 413.176 3686.16 378.471 3642.54 380.182C3598.92 381.892 3541.45 390.001 3488.27 400.554C3435.08 411.107 3311.48 376.041 3230.33 404.877C3208.27 408.753 3187.39 411.607 3167.11 414.974C3146.82 418.34 3128.31 421.197 3103.89 423.565C3079.47 425.934 3049.15 427.815 3030.79 416.995C3012.44 406.175 3006.05 382.655 2989.31 381.617C2972.57 380.579 2945.48 402.024 2917.79 407.392C2890.1 412.761 2861.8 402.053 2843.91 406.382C2826.01 410.711 2818.53 430.077 2798.47 426.598C2778.41 423.119 2745.78 396.796 2721.03 389.198C2696.28 381.6 2686.98 398.642 2662.55 403.855C2638.12 409.067 2553.59 419.827 2495.43 414.388C2437.28 408.948 2375.45 390.102 2329.19 371.695C2282.92 353.289 2247.37 379.823 2200.52 371.695C2153.68 363.568 2084.33 376.167 2025.33 391.857C1983.08 415.504 1826.01 420.907 1793.35 408.018C1760.68 395.129 1735.91 389.979 1699.6 391.857C1663.28 393.736 1615.43 402.643 1571.16 414.233C1526.88 425.824 1428.91 383.174 1357.41 391.857C1327.6 395.478 1297.78 401.713 1270.36 404.858C1242.94 408.002 1217.92 410.671 1184.92 412.883C1151.91 415.096 1110.93 416.853 1086.12 406.746C1061.31 396.64 1052.67 374.67 1030.05 373.701C1007.42 372.731 970.816 392.762 933.387 397.777C895.958 402.791 857.706 392.789 833.522 396.833C809.338 400.876 799.221 418.965 772.108 415.716C744.996 412.466 700.888 387.879 667.438 380.782C633.987 373.685 619.003 390.747 588.4 394.472C563.876 397.457 539.351 400.346 518.143 395.791C496.935 391.236 479.044 379.14 455.256 379.752C431.468 380.364 401.784 393.683 375.664 392.961C349.543 392.239 231.913 361.997 210.823 358.613C189.733 355.229 193.908 335.592 152.582 315.524C125.496 317.045 94.1007 261.674 73.6837 261.331H6876.3C6713.61 282.008 6633.05 338.171 6588.13 349.431C6543.22 360.691 6491.88 361.457 6432.44 367.245Z" fill="url(#paint3_linear_8711_186847)"/>
</g>
<path d="M616.111 170.961C663.657 165 764.842 186.021 765.752 185.702C766.662 185.384 810.144 209.593 830.403 205.976C850.663 202.359 869.111 183.264 891.646 176.052C914.18 168.84 940.802 173.512 959.605 174.649C978.408 175.786 989.391 173.388 1010.57 170.441C1031.76 167.494 1063.14 163.998 1083.67 171.844C1104.2 179.69 1113.88 198.877 1135.03 196.157C1156.19 193.437 1188.81 168.81 1214.85 168.571C1240.88 168.332 1260.33 192.482 1279.25 199.43C1298.17 206.378 1316.57 196.125 1334.96 185.871C1338.26 184.219 1344.43 182.418 1350.29 185.454C1375.16 195.707 1400.02 205.961 1425.59 199.013C1451.17 192.065 1477.45 167.915 1512.64 168.154C1547.83 168.393 1591.92 193.02 1620.51 195.74C1649.1 198.46 1662.19 179.273 1689.94 171.427C1717.69 163.581 1760.1 167.077 1788.74 170.024C1817.37 172.971 1832.21 175.369 1857.63 174.232C1883.04 173.095 1919.02 168.423 1949.48 175.635C1979.94 182.847 2004.87 201.942 2032.25 205.559C2059.64 209.176 2089.47 197.315 2119.3 185.454L2119.32 185.447C2164.2 172.219 2209.29 158.925 2257.11 169.372C2305.01 179.837 2374.02 104.338 2438 121.17C2501.98 138.002 2538.91 107.568 2596 109.632C2653.09 111.697 2704.9 125.031 2736 121.17C2783.51 104.07 2843.07 186.327 2878.84 176.628C2914.61 166.93 2938.63 164.632 2971.65 164.602C3004.67 164.571 3046.68 166.806 3085.56 170.916C3124.43 175.025 3160.17 181.008 3193.37 179.034C3226.57 177.06 3257.23 167.13 3295.09 172.72C3353.8 217.849 3412.52 189.75 3464.76 205.192C3517 220.635 3562.77 206.391 3621.01 205.421C3679.24 204.45 3655.21 168.693 3718 153.251C3780.79 137.808 3884 164.602 3972 164.602C4007.77 154.903 4254.98 153.282 4288 153.251C4321.02 153.22 4413.12 129.898 4452 134.007C4490.88 138.117 4572 146.836 4602 153.251C4632 159.665 4622.46 200.394 4660.31 205.984C4690.53 209.273 4720.71 216.396 4742.81 216.435C4764.91 216.475 4778.9 213.265 4796.36 208.242C4813.83 203.218 4834.78 196.38 4862.69 195.321C4890.6 194.261 4925.47 198.98 4947.69 199.417C4969.9 199.855 4979.45 196.01 5003.7 202.254C5027.94 208.498 5066.87 224.831 5094.1 223.999C5121.32 223.167 5136.83 205.169 5158.46 200.993C5180.08 196.817 5207.82 206.463 5233.63 212.969C5259.44 219.475 5283.33 222.841 5305.36 221.793C5327.39 220.744 5350.05 207.839 5367.76 209.817C5370.58 210.497 5465.97 152.202 5488 153.251H5571C5571 153.251 5627 140.501 5654 153.251C5681 166 5780.66 232 5875 227C5892.47 232.024 5970.6 216.478 5992.7 216.438C6014.5 216.399 6044.16 213.17 6073.95 209.926L6075.22 209.789C6110.98 198.984 6265.82 197.015 6298.84 196.98C6331.86 196.946 6373.87 199.437 6412.75 204.015C6451.62 208.592 6487.36 215.257 6520.56 213.058C6553.76 210.86 6584.42 199.798 6622.28 206.024C6660.13 212.251 6705.19 235.767 6750.24 259.282C6750.24 259.282 6576.08 294.863 6553.8 312.729C6531.51 330.596 6439.64 318.612 6389.66 330.386C6339.68 342.16 6295.76 372.382 6248.21 380.568C6200.67 388.754 6099.48 359.889 6098.57 360.326C6097.66 360.763 6054.18 327.52 6033.92 332.487C6013.66 337.454 5995.21 363.675 5972.68 373.577C5950.15 383.48 5923.52 377.064 5904.72 375.503C5885.92 373.942 5874.93 377.235 5853.75 381.281C5832.57 385.328 5801.19 390.129 5780.66 379.355C5760.12 368.582 5750.44 342.235 5729.29 345.97C5708.14 349.705 5675.51 383.522 5649.48 383.85C5623.44 384.177 5604 351.016 5585.08 341.476C5566.15 331.935 5547.76 346.015 5529.36 360.094C5526.06 362.363 5519.9 364.835 5514.03 360.667C5489.17 346.587 5464.31 332.508 5438.73 342.048C5413.16 351.589 5386.88 384.75 5351.69 384.422C5316.5 384.095 5272.4 350.278 5243.81 346.543C5215.22 342.808 5202.14 369.155 5174.39 379.928C5146.64 390.702 5104.22 385.901 5075.59 381.854C5046.96 377.808 5032.11 374.515 5006.7 376.076C4981.29 377.637 4945.3 384.053 4914.85 374.15C4884.39 364.247 4859.45 338.027 4832.07 333.06C4804.69 328.093 4774.85 344.38 4745.02 360.667L4745 360.676C4700.13 378.841 4655.04 397.095 4607.22 382.75C4559.31 368.379 4508.45 321.442 4444.47 298.33C4380.49 275.218 4303.38 275.93 4246.29 273.096C4189.2 270.261 4146.15 307.204 4115.05 312.506C4067.54 335.987 4021.25 359.468 3985.48 372.786C3949.72 386.103 3925.69 389.258 3892.67 389.3C3859.65 389.343 3817.64 386.273 3778.77 380.63C3739.89 374.988 3704.15 366.773 3670.95 369.483C3637.75 372.193 3621.9 389.806 3569.24 378.153C3471.94 328.191 3451.81 354.768 3399.57 333.563C3347.32 312.358 3301.55 331.917 3243.32 333.25C3185.08 334.582 3114.39 317.688 3051.6 338.892C2988.81 360.097 2933.93 309.711 2879.05 369.016C2843.29 382.333 2688.48 336.023 2655.46 336.065C2622.44 336.108 2580.43 333.038 2541.55 327.395C2502.68 321.753 2466.94 313.538 2433.74 316.248C2400.54 318.958 2241.87 340.152 2204.01 332.477C2173.79 327.96 2143.62 318.18 2121.51 318.125C2099.41 318.071 2085.43 322.478 2067.96 329.376C2050.49 336.275 2029.55 345.664 2001.63 347.119C1973.72 348.573 1938.85 342.093 1916.64 341.493C1894.43 340.893 1884.87 346.172 1860.63 337.598C1836.39 329.024 1797.45 306.597 1770.23 307.739C1743 308.882 1727.49 333.595 1705.87 339.329C1684.24 345.064 1465.81 384.123 1440 375.189C1418.38 369.455 1250.13 308.879 1222.91 307.736C1195.69 306.593 1156.75 329.021 1132.51 337.595C1108.27 346.169 1098.71 340.889 1076.5 341.49C1054.29 342.09 1019.41 348.57 991.503 347.115C963.592 345.661 942.643 336.271 925.176 329.373C907.709 322.475 893.725 318.067 871.624 318.122C849.831 318.176 820.17 322.609 790.375 327.063H790.373L789.11 327.252C753.343 342.088 598.505 344.792 565.486 344.839C532.467 344.887 490.455 341.467 451.58 335.181C412.705 328.895 376.967 319.743 343.768 322.762C310.569 325.781 279.907 340.971 242.049 332.421C204.191 323.871 159.136 291.581 114.081 259.29C114.081 259.29 250.566 223.498 310.528 220.365C370.49 217.232 424.687 216.081 474.667 207.506C524.647 198.932 568.566 176.922 616.111 170.961Z" fill="url(#paint4_linear_8711_186847)"/>
</g>
<defs>
<linearGradient id="paint0_linear_8711_186847" x1="5893.46" y1="260.428" x2="4123.44" y2="260.428" gradientUnits="userSpaceOnUse">
<stop offset="0.36" stop-color="#FC7950"/>
<stop offset="0.433988" stop-color="#FF6E96"/>
<stop offset="0.479207" stop-color="#E480D7"/>
<stop offset="0.566122" stop-color="#999DFE"/>
<stop offset="1" stop-color="#00B2FF"/>
</linearGradient>
<linearGradient id="paint1_linear_8711_186847" x1="5893.46" y1="260.428" x2="4123.44" y2="260.428" gradientUnits="userSpaceOnUse">
<stop offset="0.36" stop-color="#FC7950"/>
<stop offset="0.433988" stop-color="#FF6E96"/>
<stop offset="0.479207" stop-color="#E480D7"/>
<stop offset="0.566122" stop-color="#999DFE"/>
<stop offset="1" stop-color="#00B2FF"/>
</linearGradient>
<linearGradient id="paint2_linear_8711_186847" x1="5884.79" y1="240.949" x2="4139.27" y2="240.95" gradientUnits="userSpaceOnUse">
<stop offset="0.36" stop-color="#FC7950"/>
<stop offset="0.433988" stop-color="#FF6E96"/>
<stop offset="0.479207" stop-color="#E480D7"/>
<stop offset="0.566122" stop-color="#999DFE"/>
<stop offset="1" stop-color="#00B2FF"/>
</linearGradient>
<linearGradient id="paint3_linear_8711_186847" x1="5884.79" y1="240.949" x2="4139.27" y2="240.95" gradientUnits="userSpaceOnUse">
<stop offset="0.36" stop-color="#FC7950"/>
<stop offset="0.433988" stop-color="#FF6E96"/>
<stop offset="0.479207" stop-color="#E480D7"/>
<stop offset="0.566122" stop-color="#999DFE"/>
<stop offset="1" stop-color="#00B2FF"/>
</linearGradient>
<linearGradient id="paint4_linear_8711_186847" x1="5783" y1="249.61" x2="4080.19" y2="249.611" gradientUnits="userSpaceOnUse">
<stop offset="0.36" stop-color="#FC7950"/>
<stop offset="0.433988" stop-color="#FF6E96"/>
<stop offset="0.479207" stop-color="#E480D7"/>
<stop offset="0.566122" stop-color="#999DFE"/>
<stop offset="1" stop-color="#00B2FF"/>
</linearGradient>
<clipPath id="clip0_8711_186847">
<rect width="6899" height="520" fill="white"/>
</clipPath>
</defs>
</svg>
